<svg xmlns="http://www.w3.org/2000/svg" width="256" height="256"><path fill="#1976D2" fill-opacity=".016" fill-rule="evenodd" d="M0 128.004v128.004l128.25-.254 128.25-.254.254-127.75L257.008 0H0v128.004m.485.496c0 70.4.119 99.053.265 63.672.146-35.38.146-92.98 0-128C.604 29.153.485 58.1.485 128.5"/><path fill="#1976D2" fill-opacity=".43" fill-rule="evenodd" d="M237.453 4.094c-2.174 2.252-6.761 6.113-10.194 8.581-5.251 3.776-6.722 4.382-9.269 3.823-2.513-.552-4.6.255-12.265 4.742l-9.236 5.408-2.994-1.819c-4.65-2.824-10.142-2.316-18.052 1.668-3.819 1.923-7.401 3.498-7.961 3.5-.56.002-2.645 1.109-4.634 2.46-3.125 2.124-4.014 2.307-6.555 1.347-4.549-1.717-8.035-.218-14.958 6.43-4.897 4.702-6.651 5.85-7.556 4.945-2.555-2.555-4.768-.982-11.538 8.203-17.118 23.22-25.318 48.939-22.355 70.115 2.094 14.973 5.999 23.639 16.351 36.29l5.962 7.286-2.255 8.214c-1.467 5.342-2.463 12.497-2.85 20.47l-.594 12.258-6.287-8.258c-4.575-6.008-6.123-8.802-5.685-10.257.332-1.1 1.114-5.269 1.739-9.265 3.05-19.506-6.527-42.614-22.812-55.043-13.24-10.105-35.883-19.484-58.147-24.085-12.539-2.592-13.97-2.608-15.275-.168-.789 1.474-.585 2.732.852 5.25 2.405 4.213 4.846 12.013 10.491 33.527 7.034 26.81 11.441 36.037 22.624 47.373 4.473 4.534 8.683 7.638 13.5 9.955 6.214 2.989 8.137 3.412 17.12 3.77 9.378.374 15.16-.49 22.73-3.395.946-.363 3.902 2.748 8.805 9.267 10.093 13.419 12.423 17.686 16.437 30.102 5.557 17.188 8.499 21.549 12.105 17.944 1.645-1.645 1.639-1.977-.111-6.483-11.361-29.253-13.361-49.752-7.025-71.999l1.495-5.25 7.722-.004c21.696-.011 47.145-7.91 64.795-20.111 8.34-5.766 24.11-21.968 25.098-25.786.342-1.32.138-3.176-.454-4.122-.834-1.336-.572-2.479 1.17-5.1 2.727-4.103 4.622-8.68 4.947-11.945.133-1.338 1.397-4.682 2.808-7.432 3.514-6.844 4.212-11.003 2.188-13.027-1.473-1.473-1.388-2.318 1.034-10.289 3.534-11.626 4.83-18.953 3.719-21.028-.573-1.071-.23-4.92.95-10.666 3.888-18.937 4.992-37.323 2.396-39.919-2.365-2.364-3.649-1.958-7.976 2.523M43 127.378c0 .207.788.995 1.75 1.75 1.586 1.243 1.621 1.208.378-.378-1.307-1.666-2.128-2.195-2.128-1.372m39 7c0 .207.787.995 1.75 1.75 1.586 1.243 1.621 1.208.378-.378-1.307-1.666-2.128-2.195-2.128-1.372M73.286 147.5c.008 2.75.202 3.756.432 2.236.229-1.52.223-3.77-.014-5-.237-1.23-.425.014-.418 2.764m8.793 5.083c.048 1.165.285 1.402.604.605.289-.722.253-1.585-.079-1.917-.332-.332-.568.258-.525 1.312m16 26c.048 1.165.285 1.402.604.605.289-.722.253-1.585-.079-1.917-.332-.332-.568.258-.525 1.312"/><path fill="#1976D2" fill-opacity=".434" fill-rule="evenodd" d="M233.777 7.472c-7.896 7.586-13.482 10.832-16.111 9.361-1.38-.773-3.892.227-11.518 4.582l-9.753 5.571-3.947-2.05c-4.979-2.586-9.926-1.978-17.183 2.113-2.879 1.623-5.854 2.951-6.61 2.951-.757 0-3.104 1.173-5.216 2.606-3.414 2.317-4.232 2.486-7.364 1.525-4.329-1.329-7.44.116-15.475 7.187-4.865 4.281-5.72 4.688-7.663 3.648-2.692-1.44-4.204-.043-12.486 11.534-7.79 10.89-14.947 25.973-18.031 38-2.262 8.823-2.513 11.472-2.129 22.5.655 18.81 5.335 30.616 17.441 43.993l5.251 5.803-1.525 4.322c-2.423 6.868-4.458 20.411-4.458 29.665v8.522l-6.612-8.767-6.613-8.766 1.361-6.136c5.094-22.963-5.433-49.267-25.038-62.565-12.131-8.229-27.554-14.708-46.598-19.577-22.736-5.812-25.816-5.146-21.274 4.6 1.386 2.973 4.18 11.706 6.208 19.406 9.29 35.264 12.733 43.942 22.097 55.689C49.067 193.899 63.374 201 76.415 201c3.412 0 9.924-.941 14.471-2.09 4.546-1.15 8.388-1.938 8.535-1.75 13.613 17.225 19.336 26.641 22.666 37.294 1.588 5.083 4.013 11.785 5.388 14.893 2.039 4.611 2.943 5.653 4.905 5.653 3.75 0 3.776-2.224.134-11.257-6.477-16.062-7.906-23.466-7.963-41.243-.039-12.364.373-17.728 1.814-23.604l1.865-7.604 10.786-.617c32.694-1.87 61.367-14.608 79.725-35.416 7.718-8.749 8.825-10.834 7.28-13.721-1.015-1.896-.746-2.902 1.885-7.051 1.688-2.662 3.332-6.448 3.652-8.414.32-1.965 1.901-6.534 3.512-10.153 3.227-7.247 3.706-11.386 1.462-12.642-1.247-.698-.998-2.246 1.653-10.3 2.348-7.13 3.175-11.584 3.339-17.978.12-4.675 1.024-12.55 2.008-17.5 1.142-5.74 1.823-13.89 1.879-22.5l.089-13.5-2.5-.244c-1.887-.184-4.148 1.34-9.223 6.216m2.453 7.783c-4.007 4.266-13.173 9.086-17.631 9.271-3.09.129-6.57 1.561-12.943 5.325C200.861 32.683 196.23 35 195.364 35c-.867 0-2.912-1.125-4.546-2.5-3.739-3.146-4.226-3.128-11.408.417-3.251 1.604-7.553 3.587-9.562 4.408-2.009.82-4.681 2.883-5.938 4.583-2.648 3.582-6.307 4.087-7.91 1.092-1.811-3.385-4.307-2.289-12.556 5.511-6.729 6.362-8.36 7.438-10.665 7.031-2.404-.425-3.233.245-7.107 5.739-6.745 9.564-11.244 18.31-14.776 28.719-2.682 7.906-3.299 11.434-3.675 21.026-.684 17.444 3.065 29.333 13.348 42.336l4.636 5.863 3.524-6.363c4.426-7.99 8.694-14.217 13.043-19.032l3.386-3.747.577-21.123c.48-17.611.852-21.464 2.237-23.174 1.429-1.765 1.982-1.881 3.95-.828l2.288 1.225-.647 18.658-.647 18.659 9.193-9.5c5.056-5.225 11.639-12.742 14.628-16.703l5.435-7.204L181 71.503C179.758 51.795 180.02 50 184.147 50c2.631 0 3.836 3.766 3.941 12.315.048 3.952.385 9.431.75 12.176l.662 4.991 4.869-10.491c2.678-5.77 5.84-14.316 7.028-18.991 2.506-9.862 3.079-11 5.54-11 3.839 0 4.296 2.317 2.2 11.167-1.085 4.582-1.855 8.449-1.71 8.593.145.145 5.363-7.28 11.596-16.498 6.234-9.219 13.318-19.574 15.743-23.012 4.589-6.505 5.08-7.844 1.464-3.995M21.114 110.75c.585 1.513 3.499 12.2 6.474 23.75 8.745 33.939 17.294 48.283 33.297 55.866 6.007 2.846 7.488 3.129 16.115 3.085 6.015-.032 10.711-.582 12.802-1.5l3.302-1.451-6.109-7.11c-5.948-6.923-6.336-7.179-14.802-9.769-4.781-1.462-11.393-3.216-14.693-3.897-7.105-1.467-8.5-2.232-8.5-4.661 0-3.823 2.407-4.396 10.707-2.549 4.263.948 8.434 1.961 9.271 2.25.837.29-.503-1.584-2.978-4.162-3.789-3.948-5.764-5.072-12.5-7.111-4.4-1.332-10.025-2.724-12.5-3.093-5.225-.779-7-1.917-7-4.485 0-2.801 2.926-3.847 8.014-2.865 2.467.475 5.139.884 5.938.908.798.024-2.518-3.709-7.371-8.296-8.04-7.6-8.72-8.532-7.667-10.5.636-1.188 1.933-2.16 2.881-2.16.949 0 5.996 3.982 11.216 8.849l9.49 8.848-.351-7.726c-.381-8.402.759-11.971 3.826-11.971 2.803 0 3.34 1.547 3.123 8.994-.108 3.711.576 9.791 1.531 13.607 1.421 5.676 2.556 7.771 6.406 11.815l4.678 4.916-.897-6.416c-1.614-11.545.816-19.899 5.017-17.249 1.334.842 1.69 2.821 1.787 9.942.067 4.89.896 12.175 1.842 16.19 1.501 6.372 2.481 8.181 7.717 14.25 3.299 3.823 6.364 6.951 6.811 6.951 1.583 0 2.204-11.917.994-19.091-1.574-9.333-8.338-22.909-14.554-29.214-9.71-9.85-29.771-19.739-51.018-25.151-13.024-3.318-13.659-3.308-12.299.206"/><path fill="#1976D2" fill-opacity=".975" fill-rule="evenodd" d="M235.5 6.659c-8.798 8.233-13.947 11.305-17.879 10.667-2.62-.425-4.877.452-12.028 4.676l-8.803 5.2-3.229-1.739c-4.537-2.443-13.182-1.637-18.251 1.702-2.095 1.38-5.16 2.843-6.81 3.25-1.65.407-4.501 1.883-6.335 3.278-2.453 1.867-3.629 2.243-4.45 1.422-.613-.613-2.817-1.115-4.896-1.115-3.29 0-4.699.866-10.841 6.659-5.353 5.05-7.339 6.38-8.219 5.5-2.566-2.566-4.776-.954-11.69 8.525-13.54 18.566-20.754 37.257-21.733 56.316-.958 18.637 4.303 34.116 16.553 48.706l6.026 7.176-2.51 9.809c-1.834 7.166-2.563 12.838-2.707 21.049-.109 6.183-.423 11.245-.698 11.25-.275.005-3.498-3.938-7.163-8.762l-6.663-8.771 1.413-5.446c2.884-11.119 1.486-25.371-3.594-36.648-8.161-18.114-20.37-28.582-44.733-38.355-11.028-4.424-30.815-9.783-39.451-10.686-7.226-.755-7.951.49-4.385 7.528 1.408 2.779 5.023 14.472 8.033 25.984 6.528 24.973 9.176 32.306 15.097 41.805 13.399 21.498 34.308 29.639 57.547 22.407l5.88-1.83 6.946 9.142c10.143 13.349 13.398 19.293 17.475 31.906 4.214 13.035 6.876 18.022 9.363 17.543 2.751-.53 2.594-3.392-.608-11.09-8.986-21.6-11.081-46.938-5.528-66.856l1.572-5.638 9.65-.701c19.967-1.451 36.19-5.504 50.539-12.629 13.288-6.597 22.044-13.712 34.063-27.676 4.826-5.608 5.397-7.267 3.145-9.136-1.176-.976-.856-2.07 1.986-6.791 1.864-3.095 3.651-7.238 3.972-9.208.321-1.97 1.67-5.832 2.997-8.582 3.53-7.315 4.169-11.499 1.999-13.086-1.67-1.221-1.654-1.601.322-7.6 3.375-10.247 5.312-20.01 4.659-23.487-.343-1.829.341-8.179 1.566-14.537 1.441-7.479 2.213-15.509 2.288-23.79.107-11.8.001-12.513-1.887-12.728-1.25-.143-4.25 1.878-8 5.387m-2 10.1C226.755 22.11 222.812 24 218.388 24c-2.694 0-6.289 1.509-13.106 5.5-5.167 3.025-9.993 5.5-10.723 5.5-.731 0-2.066-1.125-2.967-2.5-2.223-3.393-6.374-3.261-13.465.426-3.095 1.609-7.117 3.475-8.938 4.146-1.821.672-4.462 2.73-5.869 4.575-3.053 4.002-4.714 4.207-6.912.853-.901-1.375-2.25-2.5-2.998-2.5-.747 0-5.083 3.401-9.635 7.557-6.874 6.278-8.715 7.472-10.873 7.055-2.261-.436-3.211.334-7.336 5.952-2.606 3.549-6.886 10.671-9.511 15.828-11.717 23.013-13.002 46.16-3.615 65.108 3.173 6.404 10.562 16.554 12.606 17.315.466.174 1.834-1.626 3.041-4 3.108-6.112 9.598-15.613 13.913-20.367l3.677-4.053.7-21.215c.384-11.668.964-21.906 1.288-22.75.335-.873 1.506-1.405 2.712-1.233 2.078.297 2.123.697 2.105 19.053-.01 10.313.277 18.75.637 18.75 1.376 0 22.551-22.868 25.979-28.055l3.597-5.445-.764-11.5c-1.319-19.862-1.152-26.978.647-27.668 3.362-1.29 4.327 1.759 5.037 15.918.379 7.563.996 13.75 1.371 13.75 2.015 0 13.029-27.211 14.473-35.756.38-2.248 1.332-4.333 2.116-4.634 2.503-.961 4.425.509 4.425 3.385 0 4.82-4.885 20.143-9.486 29.755-2.435 5.088-4.262 9.25-4.059 9.25.203 0 3.568-1.844 7.479-4.099 7.035-4.056 9.558-4.389 10.701-1.411.901 2.349-.496 3.468-14.359 11.504-11.035 6.396-13.529 8.324-17.556 13.57-2.582 3.363-8.398 10.073-12.925 14.912-6.007 6.42-7.564 8.584-5.763 8.007 12.155-3.889 33.308-9.29 34.538-8.818.969.372 1.426 1.562 1.234 3.213-.293 2.53-1.178 2.87-25.304 9.72l-25 7.098-4.241 5.178C140.417 146.786 132 160.756 132 162.879c0 3.406 27.842-.895 43.943-6.789 14.676-5.373 32.368-17.184 31.383-20.952-.392-1.497.55-2.567 4.082-4.637 4.615-2.705 5.443-3.857 3.592-5.001-1.863-1.151-1.013-3.477 3.52-9.634 3.938-5.35 4.437-6.579 3.878-9.559-.495-2.64-.182-3.919 1.375-5.613 1.109-1.207 2.932-3.723 4.051-5.591l2.033-3.398-2.095-1.696-2.095-1.697 4.667-14.023c4.901-14.731 5.363-17.192 3.56-18.995-.807-.807-.553-3.49.94-9.95 2.692-11.646 4.399-23.91 3.993-28.698l-.327-3.855-5 3.968M20 108.416c0 .8.483 2.721 1.072 4.269.59 1.548 3.26 11.197 5.934 21.443 7.624 29.218 12.305 39.276 22.878 49.167 7.628 7.135 14.082 9.962 23.988 10.508 8.002.44 18.53-1.026 19.581-2.727.268-.434-2.762-4.189-6.733-8.345-7.001-7.328-7.493-7.639-16.21-10.249-4.944-1.481-11.563-3.171-14.707-3.756-5.7-1.06-7.257-2.38-6.165-5.226.787-2.05 5.445-1.905 13.869.431 3.83 1.062 7.087 1.809 7.236 1.659.149-.149-2.319-2.731-5.486-5.736-6.004-5.7-6.248-5.798-26.757-10.71-2.327-.558-3-1.272-3-3.181 0-2.154.439-2.459 3.5-2.431 1.925.018 5.3.386 7.5.818l4 .786-8.75-8.838c-4.812-4.861-8.75-9.375-8.75-10.033 0-.657.925-1.69 2.056-2.295 1.817-.972 3.062-.136 10.742 7.215 4.778 4.573 8.84 8.653 9.028 9.065 1.125 2.474 1.741-.304 1.71-7.709-.038-8.93 1.385-12.276 4.683-11.011 1.262.485 1.56 2.224 1.508 8.787-.087 10.871 2.251 18.612 7.503 24.841 2.246 2.663 4.376 4.842 4.735 4.842.358 0 .458-4.029.223-8.953-.47-9.825.088-13.555 2.144-14.344 3.031-1.163 3.789.972 4.045 11.394.37 15.035 2.431 21.253 9.831 29.654 3.27 3.712 6.3 6.879 6.735 7.038 2.368.865 2.731-15.782.529-24.237-1.959-7.52-7.641-18.326-12.596-23.956-8.339-9.473-30.27-20.667-50.876-25.967-14.907-3.834-15-3.847-15-2.213"/></svg>